<svg width="270" height="270" viewBox="0 0 270 270" fill="none" xmlns="http://www.w3.org/2000/svg">
<path d="M134.722 269.443C209.126 269.443 269.443 209.126 269.443 134.722C269.443 60.317 209.126 0 134.722 0C60.3169 0 0 60.317 0 134.722C0 209.126 60.3169 269.443 134.722 269.443Z" fill="black"/>
<path fill-rule="evenodd" clip-rule="evenodd" d="M123.693 38.5818L98.9007 55.2329L98.8682 80.3078V80.146L98.723 80.1402L67.4367 117.96L181.158 122.493L212.445 84.674L175.06 83.1835V106.422H157.987V82.5029L145.563 82.0076L145.543 64.3971L128.411 51.4365L128.445 81.3251L123.638 81.1335L123.693 38.5818ZM123.631 82.3045L98.8682 98.9357V108.77H123.631V82.3045ZM128.465 85.4772V106.068H137.417L150.06 116.132V110.723L137.18 92.0701L128.465 85.4772Z" fill="white"/>
<path d="M158.046 73.357L174.977 81.2011L175.016 101.797L158.084 93.9526L158.046 73.357Z" fill="white"/>
<path d="M66.8348 121.784L181.325 125.926V214.661L66.8348 210.519V121.784Z" fill="white"/>
</svg>
